<svg width="142" height="52" viewBox="0 0 142 52" fill="none" xmlns="http://www.w3.org/2000/svg">
<g id="Rodboprotologo-v2">
<g id="robodev-white">
<path fill-rule="evenodd" clip-rule="evenodd" d="M21.4585 27.3993H21.5761C23.0329 27.3993 24.2782 27.1717 25.3589 26.694C26.4397 26.2161 27.262 25.5563 27.8261 24.6917C28.39 23.827 28.6955 22.8487 28.6955 21.711C28.6955 20.5734 28.4135 19.5722 27.8261 18.7076C27.262 17.843 26.4397 17.1832 25.3589 16.7053C24.2782 16.2275 23.0329 16 21.5761 16H13V35.6586H16.6655V27.3765H21.435L21.4585 27.3993ZM16.6655 18.8441H21.4585C22.6568 18.8441 23.5732 19.0944 24.1841 19.595C24.7951 20.0955 25.124 20.8009 25.124 21.7338C25.124 22.6666 24.8186 23.3947 24.1841 23.918C23.5497 24.4414 22.6568 24.7144 21.4585 24.7144H16.6655V18.8441Z" fill="white"/>
<path fill-rule="evenodd" clip-rule="evenodd" d="M56.3736 21.4836C57.6425 21.4836 58.7703 21.7794 59.7102 22.3708V22.3482C60.6501 22.9396 61.3783 23.7815 61.9187 24.851C62.4593 25.9203 62.7177 27.1718 62.7177 28.6507C62.7177 30.1297 62.4358 31.4038 61.8951 32.4959C61.3548 33.588 60.603 34.4527 59.6161 35.0443C58.6294 35.6586 57.5014 35.9544 56.1387 35.9544C54.7761 35.9544 53.6483 35.6586 52.7789 35.0215C52.0975 34.5438 51.6979 33.8612 51.416 33.0875V35.6814H47.9386V16.0228H51.4865V24.2821C51.792 23.5312 52.2383 22.8715 52.9668 22.3936C53.8832 21.7794 55.011 21.4836 56.3736 21.4836ZM55.2459 33.1103C56.3736 33.1103 57.29 32.7236 57.9715 31.9499C58.653 31.1762 58.9816 30.1069 58.9816 28.6962C58.9816 27.2856 58.6294 26.1933 57.948 25.4426C57.2665 24.6917 56.3266 24.3049 55.1988 24.3049C54.0711 24.3049 53.1782 24.6917 52.4735 25.4653C51.792 26.2389 51.4395 27.3083 51.4395 28.719C51.4395 30.1297 51.7685 31.2218 52.4735 31.9727C53.1782 32.7236 54.1181 33.1103 55.2459 33.1103Z" fill="white"/>
<path fill-rule="evenodd" clip-rule="evenodd" d="M37.6238 21.4836C39.1746 21.4836 40.5138 21.7794 41.6651 22.3937H41.6415C42.7928 23.008 43.6857 23.8498 44.3201 24.9193C44.9546 25.9886 45.2836 27.2401 45.2836 28.6508C45.2836 30.0615 44.9781 31.3357 44.3201 32.4278C43.6622 33.5199 42.7693 34.3845 41.618 34.9989C40.4903 35.6132 39.1511 35.9317 37.6238 35.9317C36.0965 35.9317 34.7574 35.6132 33.6061 34.9989C32.4313 34.3845 31.5384 33.5199 30.904 32.4278C30.2695 31.3357 29.9406 30.0615 29.9406 28.6508C29.9406 27.2401 30.2695 25.9886 30.904 24.9193C31.5617 23.8498 32.4545 23.008 33.6061 22.3937C34.7574 21.7794 36.073 21.4836 37.6238 21.4836ZM39.668 32.6326C40.2789 32.2457 40.7487 31.7224 41.0777 31.0399C41.4302 30.3573 41.5945 29.5609 41.5945 28.628C41.5945 27.2628 41.2423 26.1707 40.4903 25.397C39.7385 24.6007 38.7986 24.2139 37.6473 24.2139C36.4961 24.2139 35.5562 24.6235 34.8041 25.397C34.0524 26.1935 33.6764 27.2628 33.6764 28.628C33.6764 29.5609 33.841 30.3573 34.1935 31.0399C34.5457 31.7224 35.0158 32.2685 35.6032 32.6326C36.1906 33.0194 36.8953 33.2014 37.6473 33.2014C38.3991 33.2014 39.057 32.9966 39.668 32.6326Z" fill="white"/>
<path fill-rule="evenodd" clip-rule="evenodd" d="M76.2044 22.3937C75.0532 21.7794 73.714 21.4836 72.1632 21.4836C70.6124 21.4836 69.2967 21.7794 68.1455 22.3937C66.9939 23.008 66.101 23.8498 65.4433 24.9193C64.8089 25.9886 64.4799 27.2401 64.4799 28.6508C64.4799 30.0615 64.8089 31.3357 65.4433 32.4278C66.0778 33.5199 66.9706 34.3845 68.1455 34.9989C69.2967 35.6132 70.6359 35.9317 72.1632 35.9317C73.6905 35.9317 75.0296 35.6132 76.1574 34.9989C77.3087 34.3845 78.2015 33.5199 78.8595 32.4278C79.5175 31.3357 79.8229 30.0615 79.8229 28.6508C79.8229 27.2401 79.4939 25.9886 78.8595 24.9193C78.2251 23.8498 77.3322 23.008 76.1809 22.3937H76.2044ZM75.617 31.0399C75.2881 31.7224 74.8182 32.2457 74.2073 32.6326C73.5964 32.9966 72.9385 33.2014 72.1867 33.2014C71.4347 33.2014 70.73 33.0194 70.1426 32.6326C69.5552 32.2685 69.0851 31.7224 68.7329 31.0399C68.3804 30.3573 68.2157 29.5609 68.2157 28.628C68.2157 27.2628 68.5917 26.1935 69.3435 25.397C70.0955 24.6235 71.0354 24.2139 72.1867 24.2139C73.338 24.2139 74.2779 24.6007 75.0296 25.397C75.7817 26.1707 76.1339 27.2628 76.1339 28.628C76.1339 29.5609 75.9695 30.3573 75.617 31.0399Z" fill="white"/>
<path fill-rule="evenodd" clip-rule="evenodd" d="M91.5471 22.4391C92.1345 22.8487 92.5341 23.4403 92.816 24.0773H92.8395V16.0228H96.411V35.7268H92.9333V33.2696C92.6046 33.9749 92.1581 34.612 91.4298 35.0898C90.4899 35.7042 89.3857 36 88.0698 36C86.7539 36 85.6026 35.7042 84.6394 35.1126C83.676 34.521 82.9243 33.6791 82.4071 32.6097C81.8668 31.5404 81.6084 30.289 81.6084 28.81C81.6084 27.331 81.8903 26.0568 82.4307 24.9647C82.971 23.8726 83.7466 23.008 84.7332 22.4164C85.7202 21.802 86.8244 21.5062 88.1874 21.5062C89.55 21.5062 90.6543 21.802 91.5471 22.4391ZM89.127 33.1559C90.2783 33.1559 91.1946 32.769 91.8761 31.9954H91.8526C92.5341 31.2218 92.8866 30.1525 92.8866 28.7418C92.8866 27.331 92.5576 26.2616 91.8526 25.488C91.1479 24.7372 90.208 24.3503 89.0802 24.3503C87.9522 24.3503 87.0361 24.7372 86.3546 25.5107C85.6731 26.2844 85.3206 27.3537 85.3206 28.7644C85.3206 30.1751 85.6496 31.2673 86.3546 32.0182C87.0593 32.769 87.9757 33.1559 89.127 33.1559Z" fill="white"/>
<path fill-rule="evenodd" clip-rule="evenodd" d="M110.297 22.3482C109.24 21.7794 107.995 21.4836 106.585 21.4836C105.081 21.4836 103.765 21.7794 102.637 22.3937C101.51 23.008 100.64 23.8498 100.006 24.9421C99.3715 26.0342 99.066 27.2856 99.066 28.6962C99.066 30.1069 99.3715 31.3811 100.006 32.4733C100.64 33.5654 101.51 34.43 102.661 35.0444C103.812 35.6586 105.128 35.9772 106.655 35.9772C108.347 35.9772 109.757 35.5905 110.861 34.8396C111.989 34.066 112.764 33.0421 113.234 31.7224H109.874C109.616 32.2912 109.193 32.7008 108.629 32.9738C108.065 33.2468 107.407 33.3833 106.655 33.3833C105.363 33.3833 104.353 32.9966 103.648 32.2003C103.107 31.6087 102.778 30.7896 102.661 29.7885H113.516C113.542 29.6639 113.561 29.5463 113.576 29.428C113.589 29.33 113.599 29.2316 113.61 29.1285C113.61 28.9011 113.633 28.6735 113.633 28.4232C113.633 27.0353 113.352 25.8293 112.764 24.7828C112.177 23.7361 111.354 22.9398 110.321 22.371L110.297 22.3482ZM106.514 24.0774C107.619 24.0774 108.488 24.396 109.099 25.0558C109.592 25.5791 109.851 26.3981 109.945 27.3539H102.731C102.896 26.512 103.178 25.8067 103.648 25.2833C104.353 24.487 105.316 24.0774 106.514 24.0774Z" fill="white"/>
<path d="M121.622 31.9271L125.264 21.7566H129L123.22 35.6814H119.884L114.127 21.7566H117.957L121.622 31.9271Z" fill="white"/>
<path d="M24.6069 35.6814L16.6655 27.3765C20.7449 27.25 18.4748 24.473 21.5761 27.3993L29.6821 35.6814H24.6069Z" fill="white"/>
</g>
</g>
</svg>
